<?xml version="1.0" encoding="UTF-8" standalone="no"?>
<svg
   width="830"
   height="110"
   version="1.1"
   id="svg1"
   xmlns="http://www.w3.org/2000/svg"
   xmlns:svg="http://www.w3.org/2000/svg">
  <defs
     id="defs1">
    <style
       id="style1">
      @import url('https://fonts.googleapis.com/css2?family=JetBrains+Mono:ital,wght@0,100..800;1,100..800');
		</style>
  </defs>
  <rect
     x="0"
     y="0"
     width="100%"
     height="100%"
     fill="#ffbf00"
     id="rect1" />
  <path
     d="m 266.09328,82.5 q -7.168,0 -11.26399,-4.095998 -4.096,-4.095999 -4.096,-11.263996 V 47.086681 H 238.10396 V 35.566686 h 12.62933 V 22.340025 h 12.79999 v 13.226661 h 18.34666 V 47.086681 H 263.53328 V 66.71334 q 0,1.877332 0.93867,3.071999 1.024,1.194666 2.90133,1.194666 h 14.08 V 82.5 Z m 46.50668,0.853333 q -9.47199,0 -14.84799,-5.119998 -5.29067,-5.119998 -5.29067,-13.994661 V 35.566686 h 12.8 v 28.586655 q 0,8.106663 7.33866,8.106663 3.49867,0 5.376,-2.047999 1.96267,-2.133332 1.96267,-6.058664 V 35.566686 h 12.79999 v 28.671988 q 0,8.959997 -5.376,14.079994 -5.37599,5.034665 -14.76266,5.034665 z M 344.17332,82.5 V 70.980005 h 15.53066 V 47.086681 h -13.824 V 35.566686 h 26.62399 v 35.413319 h 13.48266 V 82.5 Z m 21.33332,-54.357311 q -3.49866,0 -5.632,-1.791999 -2.048,-1.791999 -2.048,-4.863998 0,-3.071999 2.048,-4.863998 2.13334,-1.791999 5.632,-1.791999 3.49867,0 5.54666,1.791999 2.13334,1.791999 2.13334,4.863998 0,3.071999 -2.13334,4.863998 -2.04799,1.791999 -5.54666,1.791999 z m 50.26135,55.210644 q -6.22933,0 -10.92267,-2.303999 -4.69333,-2.389332 -7.25333,-6.570664 Q 395.032,70.212005 395.032,64.580007 V 53.486679 q 0,-5.717331 2.55999,-9.898663 2.56,-4.181331 7.25333,-6.48533 4.69334,-2.389333 10.92267,-2.389333 9.30133,0 14.84799,4.693332 5.54666,4.693331 5.888,12.799994 h -12.45866 q -0.256,-2.986665 -2.56,-4.693331 -2.21867,-1.706666 -5.71733,-1.706666 -3.84,0 -5.888,1.962666 -2.048,1.962666 -2.048,5.717331 v 11.093328 q 0,3.669332 2.048,5.717331 2.048,1.962666 5.888,1.962666 3.49866,0 5.71733,-1.621332 2.304,-1.706666 2.56,-4.778665 h 12.45866 q -0.34134,8.106663 -5.888,12.799995 -5.54666,4.693331 -14.84799,4.693331 z M 446.65867,82.5 V 20.206693 h 12.8 v 33.109319 h 6.48533 l 9.81333,-17.749326 h 14.07999 L 476.78133,58.521343 490.09332,82.5 h -14.33599 l -9.89866,-18.431992 h -6.4 V 82.5 Z m 78.848,0 q -4.94933,0 -8.70399,-2.047999 -3.75467,-2.133333 -5.888,-5.887998 -2.048,-3.754665 -2.048,-8.703996 V 31.726688 H 493.93335 V 20.206693 h 27.73333 V 65.43334 q 0,2.474666 1.36533,4.010665 1.45066,1.536 3.75466,1.536 h 13.22667 V 82.5 Z m 30.80536,15.359994 6.4,-17.663993 -17.664,-44.629315 h 13.312 l 7.59466,20.479992 q 0.85333,2.303999 1.70667,5.290664 0.93866,2.986666 1.28,5.631998 0.34133,-2.645332 1.10933,-5.631998 0.768,-2.986665 1.62133,-5.290664 l 7.08267,-20.479992 h 13.39732 l -22.44265,62.293308 z"
     id="text1"
     style="font-weight:800;font-size:85.3333px;font-family:'JetBrainsMonoNL Nerd Font';-inkscape-font-specification:'JetBrainsMonoNL Nerd Font, Ultra-Bold';text-anchor:middle;fill:#ffffff"
     aria-label="tuickly" />
</svg>
